<svg xmlns="http://www.w3.org/2000/svg" xmlns:xlink="http://www.w3.org/1999/xlink" width="500" zoomAndPan="magnify" viewBox="0 0 375 374.999991" height="500" preserveAspectRatio="xMidYMid meet" version="1.0"><defs><clipPath id="64ad0e46ed"><path d="M 47.195312 58.449219 L 327.90625 58.449219 L 327.90625 339.160156 L 47.195312 339.160156 Z M 47.195312 58.449219 " clip-rule="nonzero"/></clipPath><clipPath id="bb90515267"><path d="M 195.488281 182.714844 L 316.625 182.714844 L 316.625 214.78125 L 195.488281 214.78125 Z M 195.488281 182.714844 " clip-rule="nonzero"/></clipPath><clipPath id="a2f20de3de"><path d="M 240.511719 140.074219 L 271.589844 140.074219 L 271.589844 257.371094 L 240.511719 257.371094 Z M 240.511719 140.074219 " clip-rule="nonzero"/></clipPath></defs><g clip-path="url(#64ad0e46ed)"><path fill="#ffffff" d="M 187.535156 339.160156 C 264.9375 339.160156 327.90625 276.191406 327.90625 198.789062 C 327.90625 121.390625 264.9375 58.425781 187.535156 58.425781 C 110.136719 58.425781 47.175781 121.394531 47.175781 198.789062 C 47.175781 276.183594 110.144531 339.160156 187.535156 339.160156 Z M 325.152344 198.789062 C 325.152344 274.667969 263.414062 336.402344 187.535156 336.402344 L 187.535156 61.183594 C 263.414062 61.183594 325.152344 122.910156 325.152344 198.789062 Z M 325.152344 198.789062 " fill-opacity="1" fill-rule="nonzero"/></g><g clip-path="url(#bb90515267)"><path fill="#ffffff" d="M 262.21875 204.976562 L 262.21875 214.753906 L 249.726562 214.753906 L 249.726562 204.976562 L 239.921875 204.976562 L 239.921875 192.503906 L 249.734375 192.503906 L 249.734375 182.726562 L 262.226562 182.726562 L 262.226562 192.515625 L 272.023438 192.515625 L 272.023438 204.984375 Z M 306.816406 214.753906 L 294.324219 214.753906 L 294.324219 204.976562 L 284.535156 204.976562 L 284.535156 192.503906 L 294.332031 192.503906 L 294.332031 182.726562 L 306.828125 182.726562 L 306.828125 192.515625 L 316.625 192.515625 L 316.625 204.984375 L 306.816406 204.984375 Z M 305.683594 213.621094 L 305.683594 203.84375 L 315.488281 203.84375 L 315.488281 193.640625 L 305.683594 193.640625 L 305.683594 183.859375 L 295.460938 183.859375 L 295.460938 193.648438 L 285.671875 193.648438 L 285.671875 203.851562 L 295.46875 203.851562 L 295.46875 213.621094 Z M 217.617188 204.976562 L 217.617188 214.753906 L 205.125 214.753906 L 205.125 204.976562 L 195.320312 204.976562 L 195.320312 192.503906 L 205.136719 192.503906 L 205.136719 182.726562 L 217.628906 182.726562 L 217.628906 192.515625 L 227.425781 192.515625 L 227.425781 204.984375 Z M 216.484375 203.84375 L 226.289062 203.84375 L 226.289062 193.640625 L 216.484375 193.640625 L 216.484375 183.859375 L 206.261719 183.859375 L 206.261719 193.648438 L 196.453125 193.648438 L 196.453125 203.851562 L 206.269531 203.851562 L 206.269531 213.621094 L 216.492188 213.621094 Z M 216.484375 203.84375 " fill-opacity="1" fill-rule="nonzero"/></g><g clip-path="url(#a2f20de3de)"><path fill="#ffffff" d="M 250.007812 204.765625 L 240.535156 204.765625 L 240.535156 192.683594 L 250.007812 192.683594 L 250.007812 183.203125 L 262.089844 183.203125 L 262.089844 192.691406 L 271.5625 192.691406 L 271.5625 204.773438 L 262.082031 204.773438 L 262.082031 214.246094 L 250 214.246094 Z M 240.535156 247.890625 L 240.535156 235.808594 L 250.007812 235.808594 L 250.007812 226.34375 L 262.089844 226.34375 L 262.089844 235.816406 L 271.5625 235.816406 L 271.5625 247.898438 L 262.082031 247.898438 L 262.082031 257.371094 L 250 257.371094 L 250 247.890625 Z M 241.632812 246.792969 L 251.109375 246.792969 L 251.109375 256.273438 L 260.992188 256.273438 L 260.992188 246.792969 L 270.464844 246.792969 L 270.464844 236.90625 L 260.984375 236.90625 L 260.984375 227.441406 L 251.097656 227.441406 L 251.097656 236.914062 L 241.632812 236.914062 Z M 250.007812 161.640625 L 240.535156 161.640625 L 240.535156 149.558594 L 250.007812 149.558594 L 250.007812 140.078125 L 262.089844 140.078125 L 262.089844 149.570312 L 271.5625 149.570312 L 271.5625 161.648438 L 262.082031 161.648438 L 262.082031 171.121094 L 250 171.121094 Z M 251.109375 160.542969 L 251.109375 170.023438 L 260.992188 170.023438 L 260.992188 160.542969 L 270.464844 160.542969 L 270.464844 150.65625 L 260.984375 150.65625 L 260.984375 141.175781 L 251.097656 141.175781 L 251.097656 150.667969 L 241.632812 150.667969 L 241.632812 160.550781 Z M 251.109375 160.542969 " fill-opacity="1" fill-rule="nonzero"/></g></svg>